<svg width="1024" height="1024" viewBox="0 0 1024 1024" xmlns="http://www.w3.org/2000/svg" style="display:block" preserveAspectRatio="xMidYMid meet"><svg x="356" y="473" width="520" height="78" xmlns="http://www.w3.org/2000/svg" style="display:block" preserveAspectRatio="none"><svg version="1.1" xmlns="http://www.w3.org/2000/svg" style="display: block;" width="520" height="78" viewBox="432.26 71.89 1182.99 177.45" preserveAspectRatio="none"><g id="svg-group-f0978058-f020-4312-912c-a8f25e8e589a">
<path transform="translate(0,0)" fill="rgb(57,167,233)" d="M 1444.5 76.0036 C 1451.49 75.3851 1454 76.731 1460.04 79.8163 C 1462.26 83.4366 1464.29 87.9592 1465.89 91.9328 C 1482.28 132.619 1499.13 173.134 1515.36 213.881 C 1516.5 216.742 1517.88 221.372 1517.67 224.41 C 1515.36 229.887 1510.31 231.531 1505.03 234.06 C 1488.5 225.968 1489.79 213.834 1481.59 196.194 L 1451.93 196.235 C 1447.03 196.307 1418.8 195.265 1415.35 196.574 C 1406.58 199.898 1404.53 239.276 1387.63 233.157 C 1380.44 229.833 1375.17 226.218 1378.7 217.596 C 1395.58 176.354 1412.32 135.039 1429.35 93.8579 C 1433.67 83.4123 1434.09 80.9725 1444.5 76.0036 z M 1424.65 173.103 L 1449.5 173.172 C 1456.67 173.247 1464.48 173.173 1471.6 173.435 C 1467.68 164.343 1451.58 119.118 1447.41 115.604 C 1442.19 126.176 1428.72 161.21 1424.65 173.103 z"/>
<path transform="translate(0,0)" fill="rgb(254,254,254)" d="M 504.168 73.9788 C 519.427 76.1082 517.288 90.8493 517.285 102.729 C 517.282 116.264 516.876 129.642 517.202 143.198 C 538.422 142.438 567.96 142.377 589 143.399 C 589.095 124.352 588.218 105.173 589.24 86.1933 C 588.815 72.4889 612.461 73.6701 612.679 83.3521 C 613.717 129.442 613.117 176.558 612.992 222.74 C 612.973 229.685 604.732 232.078 599.893 233.246 C 587.093 227.318 588.684 217.719 588.757 205.1 C 588.835 191.392 589.004 177.713 588.986 164.002 C 571.129 165.332 536.433 164.273 517.061 164.616 C 517.063 182.611 517.485 207.199 516.386 225.471 C 515.626 228.159 512.892 230.457 510.719 231.697 C 508.183 235.318 495.17 230.737 494.491 226.074 C 490.184 196.454 493.942 162.13 492.967 132.101 C 492.537 118.861 492.949 115.842 492.479 104.184 C 492.122 95.3197 491.679 90.6899 493.177 82.4827 C 494.076 78.5311 501.113 75.5364 504.168 73.9788 z"/>
<path transform="translate(0,0)" fill="rgb(254,254,254)" d="M 787.627 118.368 C 788.475 118.255 789.327 118.174 790.181 118.126 C 804.093 117.353 816.963 123.244 828.271 132.771 C 837.898 140.881 853.957 167.226 843.86 179.7 C 838.688 186.089 819.007 184.076 810.205 184.156 C 792.851 184.313 774.941 183.558 757.277 184.304 C 769.548 217.427 796.624 221.299 823.958 201.76 L 826.506 201.033 C 837.026 203.54 841.092 212.216 833.802 218.758 C 799.725 249.336 738.283 230.125 734.888 182.476 C 732.32 146.427 753.995 121.785 787.627 118.368 z M 757.705 165.37 L 798.75 165.333 L 823.7 165.105 C 816.911 143.941 803.955 136.549 782.117 139.309 C 769.082 144.248 764.807 149.558 759.118 162.181 C 758.641 163.241 758.17 164.304 757.705 165.37 z"/>
<path transform="translate(0,0)" fill="rgb(254,254,254)" d="M 1306.59 118.181 C 1308.27 118.058 1309.95 117.98 1311.63 117.947 C 1326.81 117.677 1338.67 122.802 1350.12 133.296 C 1361.27 142.916 1381.69 180.745 1354.48 183.664 C 1346.03 184.57 1334.59 184.161 1325.74 184.112 C 1309.88 183.997 1294.02 183.992 1278.16 184.097 C 1288.74 212.902 1316.65 223.059 1341.54 204.297 C 1342.81 203.376 1344.55 202.445 1346.02 202.071 C 1350.68 200.841 1356.82 203.504 1357.36 208.683 C 1358.86 222.918 1339.07 229.926 1328.41 231.928 C 1310.72 235.25 1294.59 232.749 1279.74 222.872 C 1254.25 205.918 1248.29 168.196 1265.3 143.397 C 1275.69 128.376 1288.74 121.423 1306.59 118.181 z M 1279.08 165.286 L 1316 165.325 C 1324.57 165.153 1337.72 165.326 1345.88 164.666 C 1337.88 147.489 1329.84 137.888 1309.34 138.388 C 1291.89 141.157 1285.5 149.686 1279.08 165.286 z"/>
<path transform="translate(0,0)" fill="rgb(254,254,254)" d="M 991.219 118.374 C 1020.3 112.851 1053.71 146.922 1048.31 175.672 C 1047.84 178.143 1046.42 181.998 1043.8 182.905 C 1030.95 187.348 969.091 180.24 961.61 185.731 C 960.379 190.122 964.847 196.249 967.474 199.523 C 983.879 219.964 1008.53 215.708 1026.32 201.778 C 1028.51 200.287 1035.38 201.481 1036.47 202.909 C 1050.63 221.362 1016.08 231.888 1006.28 232.658 C 990.64 234.626 970.502 231.653 958.044 220.245 C 918.709 184.227 938.726 124.119 991.219 118.374 z M 960.525 165.586 L 995.5 165.432 L 1027.84 165.157 C 1020.34 147.525 1012.18 138.96 992.216 138.35 C 973.162 140.956 967.478 148.802 960.525 165.586 z"/>
<path transform="translate(0,0)" fill="rgb(254,254,254)" d="M 1108.1 118.197 C 1119.4 117.041 1131.41 119.377 1140.61 126.248 C 1150.09 133.325 1155.63 144.279 1157.31 155.838 C 1158.56 164.48 1159.47 222.879 1156.28 227.014 C 1154.05 229.92 1149.81 232.028 1146.16 232.471 C 1144.21 232.708 1142.14 232.352 1140.59 231.082 C 1131.69 223.818 1137.28 175.937 1135.71 162.708 C 1134.85 155.473 1131.89 147.866 1126 143.27 C 1119.06 137.859 1110.74 138.478 1102.5 139.516 C 1069.67 154.356 1088.62 197.735 1082.22 225.646 C 1081.76 227.655 1079.81 232.165 1077.6 232.536 C 1067.35 234.246 1058.62 228.171 1060.18 216.825 C 1061.82 185.835 1059.79 155.89 1061.77 125.143 C 1061.87 123.658 1064.29 120.317 1065.85 119.662 C 1075.39 117.327 1080.63 122.98 1084.09 129.667 C 1092.24 122.779 1097.86 120.53 1108.1 118.197 z"/>
<path transform="translate(0,0)" fill="rgb(254,254,254)" d="M 1204.34 117.22 C 1215.89 115.842 1232.09 119.407 1241.84 125.755 C 1251.58 131.693 1244.42 146.836 1231.86 142.873 C 1220.46 139.28 1193.24 128.761 1192.46 150.719 C 1193.71 159.366 1210.15 163.376 1216.33 165.049 C 1230.42 168.869 1250.53 178.163 1252.27 194.522 C 1254.72 217.413 1239.74 229.818 1218.25 233.046 L 1214.38 233.107 C 1203.04 233.246 1172.79 232.425 1169.43 217.721 C 1168.37 213.067 1174.52 207.656 1177.55 204.584 C 1182.72 207.001 1227.3 228.033 1230.14 197.668 C 1230.99 188.638 1192.45 181.863 1185.66 175.702 C 1180.66 171.164 1173.3 165.745 1172.45 156.454 C 1168.22 130.937 1182.1 121.346 1204.34 117.22 z"/>
<path transform="translate(0,0)" fill="rgb(254,254,254)" d="M 888.51 117.322 C 899.685 115.824 941.422 121.879 924.7 140.633 C 923.373 142.122 920.601 144.497 919.01 145.916 C 908.671 140.354 889.075 130.77 879.176 141.971 C 864.19 158.928 900.71 165.41 910.471 169.659 C 921.851 174.432 933.265 183.988 933.903 197.3 C 934.971 219.584 917.927 231.812 897.25 233.083 C 894.332 233.148 891.412 233.159 888.493 233.117 C 879.72 232.957 842.619 226.715 854.961 209.592 C 855.992 208.162 859.453 205.117 860.885 203.791 C 877.28 211.775 884.714 215.066 902.709 212.614 C 931.103 188.756 877.342 184.903 865.886 173.857 C 841.729 150.564 855.895 121.357 888.51 117.322 z"/>
<path transform="translate(0,0)" fill="rgb(57,167,233)" d="M 1543.41 74.0192 C 1549.73 74.9707 1556.21 80.5816 1556.19 87.4863 C 1556.09 133.063 1557.32 178.991 1555.64 224.473 C 1555.51 228.103 1549.06 231.946 1546.05 233.627 C 1539.07 232.654 1532.37 228.01 1532.46 221.06 C 1532.65 205.817 1529.97 84.9076 1533.02 80.4755 L 1533.12 80.3356 C 1535.02 77.565 1540.26 75.5018 1543.41 74.0192 z"/>
<path transform="translate(0,0)" fill="rgb(254,254,254)" d="M 723.85 118.247 C 726.442 117.982 728.269 117.965 730.757 118.905 C 733.006 119.752 734.809 121.486 735.741 123.701 C 741.995 138.386 722.355 140.275 714.889 143.488 C 685.039 156.329 704.993 202.412 696.362 226.628 C 693.643 234.256 686.888 233.912 680.651 231.273 C 678.939 229.709 677.864 228.274 676.432 226.463 C 675.248 216.113 674.819 129.169 677.497 123.439 C 678.355 121.603 679.975 120.408 681.848 119.743 C 684.503 118.8 689.945 118.336 692.533 119.614 C 696.514 121.58 697.665 126.939 698.972 130.806 C 708.033 123.763 712.586 120.269 723.85 118.247 z"/>
<path transform="translate(0,0)" fill="rgb(254,254,254)" d="M 641.031 118.006 C 642.892 117.925 644.756 118.046 646.591 118.366 C 655.397 119.889 655.611 126.598 655.724 133.942 C 656.179 163.483 656.647 193.259 655.72 222.77 C 655.591 226.88 650.967 230.551 647.884 232.66 C 636.059 233.604 633.121 228.241 633.164 217.609 C 633.289 186.526 631.988 155.047 633.618 124.077 C 633.756 121.441 638.984 119.014 641.031 118.006 z"/>
<path transform="translate(0,0)" fill="rgb(254,254,254)" d="M 641.7 74.9259 C 650.919 71.8881 667.477 89.2722 647.954 102.176 C 626.966 102.561 623.879 83.1389 641.7 74.9259 z"/>
</g></svg></svg><svg x="150" y="421" width="176" height="181" xmlns="http://www.w3.org/2000/svg" style="display:block" preserveAspectRatio="none"><svg version="1.1" xmlns="http://www.w3.org/2000/svg" style="display: block;" width="176" height="181" viewBox="0.00 0.00 1408.00 1448.00" preserveAspectRatio="none"><g id="svg-group-18d3ca56-87eb-4abd-b685-7c12a4822d27">
<defs>
	<linearGradient id="Gradient1" gradientUnits="userSpaceOnUse" x1="733.118" y1="1444.86" x2="676.803" y2="4.71156">
		<stop class="stop0" offset="0" stop-opacity="1" stop-color="rgb(67,112,232)"/>
		<stop class="stop1" offset="1" stop-opacity="1" stop-color="rgb(41,194,220)"/>
	</linearGradient>
</defs>
<path transform="translate(0,0)" fill="url(#Gradient1)" d="M 680.894 0 L 733.27 0 C 739.997 9.00047 759.339 8.32803 770.072 11.1595 C 828.904 26.6797 881.09 55.1121 932.413 87.0277 C 955.638 100.021 979.261 111.389 1001.48 126.192 C 1008.78 131.052 1018.61 134.831 1026.18 139.524 C 1030.81 142.399 1035.64 145.457 1040.14 148.548 C 1053.52 157.747 1068.62 163.718 1082.75 171.728 C 1135.03 201.36 1186.99 231.618 1239.35 261.125 C 1249.67 266.941 1260.39 272.094 1270.64 278.037 C 1326.58 311.67 1370.39 359.66 1393.36 421.255 C 1396.89 430.719 1402.82 455.659 1408 463.165 L 1408 982.086 C 1400.67 995.052 1394.59 1016.92 1390.07 1031.35 C 1377.3 1072.11 1355.5 1102.17 1325.73 1132.24 C 1292.42 1165.73 1248.79 1184.53 1208.19 1207.16 L 1073.86 1283.75 L 926.462 1367.98 C 889.466 1389.14 852.451 1410.2 813.506 1427.63 C 795.603 1435.64 778.961 1436.87 762.646 1448 L 659.723 1448 C 646.32 1436.13 620.685 1434.33 604.047 1427.36 C 554.645 1406.67 508.588 1379.01 462.213 1352.48 L 377.6 1304.52 C 366.897 1298.32 356.817 1290.64 346.305 1284.78 L 174.668 1187.8 C 163.656 1181.5 151.812 1176.44 140.557 1170.55 C 123.298 1161.53 106.294 1149.92 91.603 1137.13 C 64.2537 1113.34 31.8815 1067.37 19.3981 1033.44 C 13.729 1018.03 8.02872 968.026 0.647371 960.731 C 0.436136 960.522 0.21579 960.323 0 960.119 L 0 475.526 C 7.02755 469.595 9.01177 448.286 11.3951 438.294 C 20.574 399.811 31.2269 383.041 52.7984 350.905 C 92.036 292.449 151.652 268.84 210.549 236.557 L 352.786 157.468 L 485.285 82.97 C 494.871 77.5365 504.67 70.1684 514.133 65.2908 C 553.827 44.8289 591.697 23.3187 635.699 13.3423 C 646.674 10.854 671.844 5.57328 680.894 0 z M 794.539 1191.84 C 813.9 1168.56 809.042 1152.07 808.978 1123.48 L 808.99 1049.84 L 809.102 925.84 C 809.101 904.442 809.783 880.403 808.396 859.12 C 806.629 831.998 798.645 820.898 778.852 804.337 C 751.684 781.606 721.216 776.651 686.827 779.763 C 662.313 781.981 628.24 799.157 612.461 818.474 C 601.193 832.27 602.255 852.363 602.263 869.931 C 602.272 891.215 602.362 912.603 602.656 934.193 C 603.295 981.082 608.175 1020.78 550.427 1030.83 C 535.95 1033.35 520.727 1027.65 509.618 1018.81 C 498.465 1009.93 486.288 994.624 485.314 979.794 C 484.205 962.921 484.619 944.034 484.634 926.979 L 484.662 829.912 C 484.619 788.078 485.013 746.648 483.026 704.907 C 480.487 651.552 481.513 597.552 483.873 544.226 C 484.411 532.089 482.49 516.321 482.191 503.713 C 481.896 482.573 481.792 461.431 481.879 440.289 C 481.859 426.933 482.262 412.456 480.183 399.287 C 479.533 395.169 469.716 385.029 466.129 382.354 C 455.37 374.33 446.715 370.413 433.438 371.438 C 414.849 376.284 390.292 390.602 373.003 399.903 C 352.296 410.835 331.664 421.909 311.109 433.124 C 278.254 450.902 234.78 467.454 212.819 498.453 C 207.562 505.873 204.299 530.369 204.57 540.071 C 205.493 573.045 206.259 606.082 206.236 639.108 L 206.31 829.678 C 206.28 855.382 204.542 911.872 208.8 934.702 C 215.28 969.441 288.449 1007.96 319.904 1026.08 L 568.592 1167.67 L 637.045 1205.7 C 652.018 1213.9 674.349 1227.42 690.444 1231.75 C 722.368 1240.34 772.91 1213.82 794.539 1191.84 z M 777.598 654.504 C 774.026 643.747 771.287 631.201 767.755 621.507 C 764.198 611.744 758.676 599.401 754.67 589.624 C 743.516 562.405 743.117 540.533 743.691 511.628 C 743.935 499.388 742.147 491.364 747.687 479.916 C 766.508 437.146 787.461 410.379 834.149 397.381 C 853.961 391.865 886.522 383.599 906.883 389.109 C 922.211 393.257 950.362 402.59 964.346 410.135 C 991.803 424.95 1019.88 449.915 1038.63 474.609 C 1044.63 482.802 1049.21 499.472 1052.44 508.881 C 1057 520.965 1055.9 530.96 1056.48 543.473 C 1057.93 574.823 1050.84 595.617 1036.8 623.497 C 1019.06 658.736 987.171 683.146 951.597 699.209 C 946.144 701.672 933.875 696.998 927.412 696.03 C 928.134 722.496 930.643 860.421 924.843 875.55 C 922.089 902.927 924.464 941.216 923.697 969.855 C 923.053 993.906 923.537 1022.27 924.405 1046.33 C 924.564 1050.72 927.804 1057.33 929.775 1061.26 C 938.362 1078.36 951.617 1083.21 968.864 1088.46 C 1000.42 1081.39 1049.05 1048.69 1078.42 1031.87 C 1114.28 1011.32 1191.29 980.184 1203.33 937.42 C 1206.61 925.76 1204.93 864.615 1204.88 849.608 L 1204.72 709.697 L 1204.87 600.793 C 1204.96 550.125 1213.01 497.808 1163.91 465.877 C 1131.27 444.653 1097.37 427.082 1063.45 408.095 L 894.472 312.804 C 841.65 283.101 790.797 246.854 734.677 224.058 C 691.461 206.504 622.338 235.648 606.032 278.978 C 601.842 290.113 603.458 336.27 603.494 350.689 L 603.614 435.728 L 603.487 559.065 C 603.486 579.434 603.062 599.816 603.57 620.23 C 604.284 648.968 631.504 666.823 656.55 673.798 C 695.771 684.72 731.87 682.337 767.94 662.793 C 771.134 660.001 774.354 657.238 777.598 654.504 z"/>
<path transform="translate(0,0)" fill="rgb(60,83,104)" d="M 777.598 654.504 C 774.026 643.747 771.287 631.201 767.755 621.507 C 764.198 611.744 758.676 599.401 754.67 589.624 C 743.516 562.405 743.117 540.533 743.691 511.628 C 743.935 499.388 742.147 491.364 747.687 479.916 C 766.508 437.146 787.461 410.379 834.149 397.381 C 853.961 391.865 886.522 383.599 906.883 389.109 C 922.211 393.257 950.362 402.59 964.346 410.135 C 991.803 424.95 1019.88 449.915 1038.63 474.609 C 1044.63 482.802 1049.21 499.472 1052.44 508.881 C 1057 520.965 1055.9 530.96 1056.48 543.473 C 1057.93 574.823 1050.84 595.617 1036.8 623.497 C 1019.06 658.736 987.171 683.146 951.597 699.209 C 946.144 701.672 933.875 696.998 927.412 696.03 C 928.134 722.496 930.643 860.421 924.843 875.55 C 924.371 871.165 924.63 866.488 924.595 862.059 C 924.148 804.887 926.299 747.588 924.13 690.456 C 923.629 677.256 923.897 663.232 922.644 650.149 C 883.406 660.095 842.058 645.248 818.108 612.615 C 810.622 629.669 786.167 655.971 767.94 662.793 C 771.134 660.001 774.354 657.238 777.598 654.504 z"/>
<path transform="translate(0,0)" fill="rgb(254,254,254)" d="M 808.144 595.784 C 790.442 557.785 798.487 512.764 828.255 483.249 C 858.023 453.734 903.111 446.072 940.958 464.097 C 978.765 482.104 1001.23 521.879 997.126 563.554 C 993.023 605.229 963.236 639.86 922.644 650.149 C 883.406 660.095 842.058 645.248 818.108 612.615 C 814.242 607.346 810.904 601.709 808.144 595.784 z"/>
<path transform="translate(0,0)" fill="rgb(93,119,136)" d="M 808.144 595.784 L 805.153 593.271 C 797.858 574.136 799.144 567.372 795.547 548.154 C 794.313 541.558 784.985 534.016 786.704 520.663 C 788.108 509.755 790.329 497.163 800.441 490.033 C 822.282 474.83 848.588 461.432 874.392 454.891 C 889.589 451.039 930.85 451.368 940.958 464.097 C 903.111 446.072 858.023 453.734 828.255 483.249 C 798.487 512.764 790.442 557.785 808.144 595.784 z"/>
</g></svg></svg></svg>